<svg width="176" height="32" viewBox="0 0 176 32" fill="none" xmlns="http://www.w3.org/2000/svg">
<rect width="32" height="32" rx="4.92308" fill="url(#paint0_linear_299_650)"/>
<path d="M16.0451 26.9115L19.2155 12.9633L25.433 21.4901L16.0451 26.9115Z" fill="#02799C"/>
<path d="M16.0451 26.9115L19.2155 12.9633L25.433 21.4901L16.0451 26.9115Z" fill="#0093BF"/>
<path d="M16.0451 26.9114L19.5073 14.1304L25.433 21.4901L16.0451 26.9114Z" fill="#0093BF"/>
<path d="M16.0447 26.9114L6.65338 21.4901V10.6482L16.0447 26.9114Z" fill="#0A3442"/>
<path d="M25.433 10.6482L19.2155 12.9633L16.0451 5.22769L25.433 10.6482Z" fill="#85E8FF"/>
<path d="M19.6741 12.4631L16.0451 5.22769L19.2155 12.9633L25.433 10.6482L19.6741 12.4631Z" fill="#CFF6FF"/>
<path d="M19.2151 12.9633L6.65338 10.6482L16.0447 5.22769L19.2151 12.9633Z" fill="#42D2FF"/>
<path d="M19.2151 12.9633L6.65338 10.6482L16.0447 5.22769L19.2151 12.9633Z" fill="#42D2FF"/>
<path d="M19.2151 12.9633L16.0447 5.22769L18.5898 12.5256L6.65338 10.6482L19.2151 12.9633Z" fill="#85E8FF"/>
<path d="M16.0447 26.9114L6.65338 10.6482L19.2151 12.9633L16.0447 26.9114Z" fill="#065E7C"/>
<path d="M25.4321 10.6482V21.4901L19.2146 12.9633L25.4321 10.6482Z" fill="#42D2FF"/>
<path d="M25.4321 10.6482L19.2146 12.9633L25.4321 21.4901L19.7565 13.0884L25.4321 10.6482Z" fill="#85E8FF"/>
<path d="M51.627 8.78125V23H48.707V8.78125H51.627ZM56.002 8.78125V11.0762H44.4004V8.78125H56.002ZM59.625 14.7383V23H56.8125V12.4336H59.459L59.625 14.7383ZM62.8086 12.3652L62.7598 14.9727C62.623 14.9531 62.457 14.9368 62.2617 14.9238C62.0729 14.9043 61.9004 14.8945 61.7441 14.8945C61.347 14.8945 61.002 14.9466 60.709 15.0508C60.4225 15.1484 60.1816 15.2949 59.9863 15.4902C59.7975 15.6855 59.6543 15.9232 59.5566 16.2031C59.4655 16.4831 59.4134 16.8021 59.4004 17.1602L58.834 16.9844C58.834 16.3008 58.9023 15.6725 59.0391 15.0996C59.1758 14.5202 59.3743 14.0156 59.6348 13.5859C59.9017 13.1562 60.2272 12.8242 60.6113 12.5898C60.9954 12.3555 61.4349 12.2383 61.9297 12.2383C62.0859 12.2383 62.2454 12.2513 62.4082 12.2773C62.571 12.2969 62.7044 12.3262 62.8086 12.3652ZM67.1055 12.4336V23H64.2832V12.4336H67.1055ZM64.1074 9.67969C64.1074 9.26953 64.2507 8.93099 64.5371 8.66406C64.8236 8.39714 65.2077 8.26367 65.6895 8.26367C66.1647 8.26367 66.5456 8.39714 66.832 8.66406C67.125 8.93099 67.2715 9.26953 67.2715 9.67969C67.2715 10.0898 67.125 10.4284 66.832 10.6953C66.5456 10.9622 66.1647 11.0957 65.6895 11.0957C65.2077 11.0957 64.8236 10.9622 64.5371 10.6953C64.2507 10.4284 64.1074 10.0898 64.1074 9.67969ZM72.3984 8V23H69.5762V8H72.3984ZM77.4668 8V23H74.6543V8H77.4668ZM77.0664 17.3457H76.2949C76.3014 16.61 76.3991 15.9329 76.5879 15.3145C76.7767 14.6895 77.0469 14.1491 77.3984 13.6934C77.75 13.2311 78.1699 12.873 78.6582 12.6191C79.153 12.3652 79.6999 12.2383 80.2988 12.2383C80.8197 12.2383 81.2917 12.3132 81.7148 12.4629C82.1445 12.6061 82.5124 12.8405 82.8184 13.166C83.1309 13.485 83.3717 13.9049 83.541 14.4258C83.7103 14.9466 83.7949 15.5781 83.7949 16.3203V23H80.9629V16.3008C80.9629 15.832 80.8945 15.4642 80.7578 15.1973C80.6276 14.9238 80.4355 14.7318 80.1816 14.6211C79.9342 14.5039 79.6283 14.4453 79.2637 14.4453C78.86 14.4453 78.515 14.5202 78.2285 14.6699C77.9486 14.8197 77.724 15.028 77.5547 15.2949C77.3854 15.5553 77.2617 15.8613 77.1836 16.2129C77.1055 16.5645 77.0664 16.9421 77.0664 17.3457ZM91.6367 20.6172V15.9102C91.6367 15.5716 91.5814 15.2819 91.4707 15.041C91.36 14.7936 91.1875 14.6016 90.9531 14.4648C90.7253 14.3281 90.429 14.2598 90.0645 14.2598C89.752 14.2598 89.4818 14.3151 89.2539 14.4258C89.026 14.5299 88.8503 14.6829 88.7266 14.8848C88.6029 15.0801 88.541 15.3112 88.541 15.5781H85.7285C85.7285 15.1289 85.8327 14.7025 86.041 14.2988C86.2493 13.8952 86.5521 13.5404 86.9492 13.2344C87.3464 12.9219 87.8184 12.6777 88.3652 12.502C88.9186 12.3262 89.5371 12.2383 90.2207 12.2383C91.041 12.2383 91.7702 12.375 92.4082 12.6484C93.0462 12.9219 93.5475 13.332 93.9121 13.8789C94.2832 14.4258 94.4688 15.1094 94.4688 15.9297V20.4512C94.4688 21.0306 94.5046 21.5059 94.5762 21.877C94.6478 22.2415 94.752 22.5605 94.8887 22.834V23H92.0469C91.9102 22.7135 91.806 22.3555 91.7344 21.9258C91.6693 21.4896 91.6367 21.0534 91.6367 20.6172ZM92.0078 16.5645L92.0273 18.1562H90.4551C90.084 18.1562 89.7617 18.1986 89.4883 18.2832C89.2148 18.3678 88.9902 18.4883 88.8145 18.6445C88.6387 18.7943 88.5085 18.9701 88.4238 19.1719C88.3457 19.3737 88.3066 19.5951 88.3066 19.8359C88.3066 20.0768 88.362 20.2949 88.4727 20.4902C88.5833 20.679 88.7428 20.8288 88.9512 20.9395C89.1595 21.0436 89.4036 21.0957 89.6836 21.0957C90.1068 21.0957 90.4746 21.0111 90.7871 20.8418C91.0996 20.6725 91.3405 20.4642 91.5098 20.2168C91.6855 19.9694 91.7767 19.735 91.7832 19.5137L92.5254 20.7051C92.4212 20.972 92.278 21.2487 92.0957 21.5352C91.9199 21.8216 91.6953 22.0918 91.4219 22.3457C91.1484 22.5931 90.8197 22.7982 90.4355 22.9609C90.0514 23.1172 89.5957 23.1953 89.0684 23.1953C88.3978 23.1953 87.7891 23.0618 87.2422 22.7949C86.7018 22.5215 86.2721 22.1471 85.9531 21.6719C85.6406 21.1901 85.4844 20.6432 85.4844 20.0312C85.4844 19.4779 85.5885 18.9863 85.7969 18.5566C86.0052 18.127 86.3112 17.7656 86.7148 17.4727C87.125 17.1732 87.6361 16.9486 88.248 16.7988C88.86 16.6426 89.5697 16.5645 90.377 16.5645H92.0078Z" fill="#E1E1E6"/>
<path d="M111.334 20.7148V23H103.766V20.7148H111.334ZM104.723 8.78125V23H101.793V8.78125H104.723ZM110.348 14.5723V16.7988H103.766V14.5723H110.348ZM111.324 8.78125V11.0762H103.766V8.78125H111.324ZM115.133 12.4336L116.881 15.6465L118.678 12.4336H121.676L118.688 17.5996L121.812 23H118.805L116.9 19.6016L114.996 23H111.988L115.113 17.5996L112.125 12.4336H115.133ZM125.855 14.4648V27.0625H123.043V12.4336H125.65L125.855 14.4648ZM132.545 17.5996V17.8047C132.545 18.5729 132.454 19.2858 132.271 19.9434C132.096 20.6009 131.835 21.1738 131.49 21.6621C131.145 22.1439 130.715 22.5215 130.201 22.7949C129.693 23.0618 129.107 23.1953 128.443 23.1953C127.799 23.1953 127.239 23.0651 126.764 22.8047C126.288 22.5443 125.888 22.1797 125.562 21.7109C125.243 21.2357 124.986 20.6855 124.791 20.0605C124.596 19.4355 124.446 18.765 124.342 18.0488V17.5117C124.446 16.7435 124.596 16.0404 124.791 15.4023C124.986 14.7578 125.243 14.2012 125.562 13.7324C125.888 13.2572 126.285 12.8893 126.754 12.6289C127.229 12.3685 127.786 12.2383 128.424 12.2383C129.094 12.2383 129.684 12.3652 130.191 12.6191C130.706 12.873 131.135 13.2376 131.48 13.7129C131.832 14.1882 132.096 14.7546 132.271 15.4121C132.454 16.0697 132.545 16.7988 132.545 17.5996ZM129.723 17.8047V17.5996C129.723 17.1504 129.684 16.737 129.605 16.3594C129.534 15.9753 129.417 15.64 129.254 15.3535C129.098 15.0671 128.889 14.8457 128.629 14.6895C128.375 14.5267 128.066 14.4453 127.701 14.4453C127.317 14.4453 126.988 14.5072 126.715 14.6309C126.448 14.7546 126.23 14.9336 126.061 15.168C125.891 15.4023 125.764 15.6823 125.68 16.0078C125.595 16.3333 125.543 16.7012 125.523 17.1113V18.4688C125.556 18.9505 125.647 19.3835 125.797 19.7676C125.947 20.1452 126.178 20.4447 126.49 20.666C126.803 20.8874 127.213 20.998 127.721 20.998C128.092 20.998 128.404 20.9167 128.658 20.7539C128.912 20.5846 129.117 20.3535 129.273 20.0605C129.436 19.7676 129.55 19.429 129.615 19.0449C129.687 18.6608 129.723 18.2474 129.723 17.8047ZM137.262 8V23H134.439V8H137.262ZM139.137 17.8242V17.6191C139.137 16.8444 139.247 16.1315 139.469 15.4805C139.69 14.8229 140.012 14.2533 140.436 13.7715C140.859 13.2897 141.38 12.9154 141.998 12.6484C142.617 12.375 143.326 12.2383 144.127 12.2383C144.928 12.2383 145.641 12.375 146.266 12.6484C146.891 12.9154 147.415 13.2897 147.838 13.7715C148.268 14.2533 148.593 14.8229 148.814 15.4805C149.036 16.1315 149.146 16.8444 149.146 17.6191V17.8242C149.146 18.5924 149.036 19.3053 148.814 19.9629C148.593 20.6139 148.268 21.1836 147.838 21.6719C147.415 22.1536 146.894 22.528 146.275 22.7949C145.657 23.0618 144.947 23.1953 144.146 23.1953C143.346 23.1953 142.633 23.0618 142.008 22.7949C141.389 22.528 140.865 22.1536 140.436 21.6719C140.012 21.1836 139.69 20.6139 139.469 19.9629C139.247 19.3053 139.137 18.5924 139.137 17.8242ZM141.949 17.6191V17.8242C141.949 18.2669 141.988 18.6803 142.066 19.0645C142.145 19.4486 142.268 19.7871 142.438 20.0801C142.613 20.3665 142.841 20.5911 143.121 20.7539C143.401 20.9167 143.743 20.998 144.146 20.998C144.537 20.998 144.872 20.9167 145.152 20.7539C145.432 20.5911 145.657 20.3665 145.826 20.0801C145.995 19.7871 146.119 19.4486 146.197 19.0645C146.282 18.6803 146.324 18.2669 146.324 17.8242V17.6191C146.324 17.1895 146.282 16.7858 146.197 16.4082C146.119 16.0241 145.992 15.6855 145.816 15.3926C145.647 15.0931 145.423 14.8587 145.143 14.6895C144.863 14.5202 144.524 14.4355 144.127 14.4355C143.73 14.4355 143.391 14.5202 143.111 14.6895C142.838 14.8587 142.613 15.0931 142.438 15.3926C142.268 15.6855 142.145 16.0241 142.066 16.4082C141.988 16.7858 141.949 17.1895 141.949 17.6191ZM153.688 14.7383V23H150.875V12.4336H153.521L153.688 14.7383ZM156.871 12.3652L156.822 14.9727C156.686 14.9531 156.52 14.9368 156.324 14.9238C156.135 14.9043 155.963 14.8945 155.807 14.8945C155.41 14.8945 155.064 14.9466 154.771 15.0508C154.485 15.1484 154.244 15.2949 154.049 15.4902C153.86 15.6855 153.717 15.9232 153.619 16.2031C153.528 16.4831 153.476 16.8021 153.463 17.1602L152.896 16.9844C152.896 16.3008 152.965 15.6725 153.102 15.0996C153.238 14.5202 153.437 14.0156 153.697 13.5859C153.964 13.1562 154.29 12.8242 154.674 12.5898C155.058 12.3555 155.497 12.2383 155.992 12.2383C156.148 12.2383 156.308 12.2513 156.471 12.2773C156.633 12.2969 156.767 12.3262 156.871 12.3652ZM162.867 23.1953C162.047 23.1953 161.311 23.0651 160.66 22.8047C160.009 22.5378 159.456 22.1699 159 21.7012C158.551 21.2324 158.206 20.6888 157.965 20.0703C157.724 19.4453 157.604 18.7812 157.604 18.0781V17.6875C157.604 16.8867 157.717 16.1543 157.945 15.4902C158.173 14.8262 158.499 14.25 158.922 13.7617C159.352 13.2734 159.872 12.8991 160.484 12.6387C161.096 12.3717 161.786 12.2383 162.555 12.2383C163.303 12.2383 163.967 12.362 164.547 12.6094C165.126 12.8568 165.611 13.2083 166.002 13.6641C166.399 14.1198 166.699 14.6667 166.9 15.3047C167.102 15.9362 167.203 16.6393 167.203 17.4141V18.5859H158.805V16.7109H164.439V16.4961C164.439 16.1055 164.368 15.7572 164.225 15.4512C164.088 15.1387 163.88 14.8913 163.6 14.709C163.32 14.5267 162.962 14.4355 162.525 14.4355C162.154 14.4355 161.835 14.5169 161.568 14.6797C161.301 14.8424 161.083 15.0703 160.914 15.3633C160.751 15.6562 160.628 16.0013 160.543 16.3984C160.465 16.7891 160.426 17.2188 160.426 17.6875V18.0781C160.426 18.5013 160.484 18.8919 160.602 19.25C160.725 19.6081 160.898 19.9173 161.119 20.1777C161.347 20.4382 161.62 20.64 161.939 20.7832C162.265 20.9264 162.633 20.998 163.043 20.998C163.551 20.998 164.023 20.9004 164.459 20.7051C164.902 20.5033 165.283 20.2005 165.602 19.7969L166.969 21.2812C166.747 21.6003 166.445 21.9062 166.061 22.1992C165.683 22.4922 165.227 22.7331 164.693 22.9219C164.16 23.1042 163.551 23.1953 162.867 23.1953ZM171.617 14.7383V23H168.805V12.4336H171.451L171.617 14.7383ZM174.801 12.3652L174.752 14.9727C174.615 14.9531 174.449 14.9368 174.254 14.9238C174.065 14.9043 173.893 14.8945 173.736 14.8945C173.339 14.8945 172.994 14.9466 172.701 15.0508C172.415 15.1484 172.174 15.2949 171.979 15.4902C171.79 15.6855 171.646 15.9232 171.549 16.2031C171.458 16.4831 171.406 16.8021 171.393 17.1602L170.826 16.9844C170.826 16.3008 170.895 15.6725 171.031 15.0996C171.168 14.5202 171.367 14.0156 171.627 13.5859C171.894 13.1562 172.219 12.8242 172.604 12.5898C172.988 12.3555 173.427 12.2383 173.922 12.2383C174.078 12.2383 174.238 12.2513 174.4 12.2773C174.563 12.2969 174.697 12.3262 174.801 12.3652Z" fill="#42D3FF"/>
<defs>
<linearGradient id="paint0_linear_299_650" x1="5.57112e+09" y1="-1.80622e+09" x2="5.57112e+09" y2="-1.80622e+09" gradientUnits="userSpaceOnUse">
<stop stop-color="#0A3442"/>
<stop offset="1" stop-color="#121214"/>
</linearGradient>
</defs>
</svg>
